<?xml version="1.0" encoding="utf-8"?>
<!-- Generator: Adobe Illustrator 20.0.0, SVG Export Plug-In . SVG Version: 6.00 Build 0)  -->
<svg version="1.1" id="Camada_1" xmlns="http://www.w3.org/2000/svg" xmlns:xlink="http://www.w3.org/1999/xlink" x="0px" y="0px"
	 viewBox="0 0 100 100" style="enable-background:new 0 0 100 100;" xml:space="preserve">
<style type="text/css">
	.st0{fill:#FFFFFF;}
	.st1{opacity:0.2;}
</style>
<g>
	<path class="st0" d="M15.4,39.1V20.2H3.7v19.3h0c0.2,6.3,4.4,11.3,9.5,11.3h40.5V39.1H15.4z"/>
	<rect x="59" y="39.1" class="st0" width="25.6" height="11.6"/>
	<rect x="84.6" y="20.1" class="st0" width="11.8" height="59.9"/>
	<polyline class="st1" points="84.6,39.1 84.6,51.7 91.6,51.7 91.6,39.1 	"/>
	<polyline class="st1" points="64.9,39.1 64.9,50.7 66.2,50.7 66.2,39.1 	"/>
	<polyline class="st1" points="51.8,39.1 51.8,50.8 53.1,50.8 53.1,39.1 	"/>
	<line class="st1" x1="66.2" y1="50.7" x2="66.2" y2="39.1"/>
	<rect x="83.1" y="39.1" class="st0" width="7.4" height="11.6"/>
	<path class="st0" d="M53.1,20.1v47.3H13.2l0,0l0,0l-9.5,0c0,6.5,4.3,11.8,9.5,11.8h39.9l0,0h0c6.5,0,11.8-5.3,11.8-11.8v0V20.1
		H53.1z"/>
</g>
</svg>
