<?xml version="1.0" encoding="utf-8"?>
<!-- Generator: Adobe Illustrator 20.0.0, SVG Export Plug-In . SVG Version: 6.00 Build 0)  -->
<svg version="1.1" id="Camada_1" xmlns="http://www.w3.org/2000/svg" xmlns:xlink="http://www.w3.org/1999/xlink" x="0px" y="0px"
	 viewBox="0 0 100 100" style="enable-background:new 0 0 100 100;" xml:space="preserve">
<style type="text/css">
	.st0{fill:#FFFFFF;}
</style>
<path class="st0" d="M50,1.5C23.1,1.5,1.2,23.3,1.2,50.3S23.1,99,50,99s48.8-21.8,48.8-48.8S76.9,1.5,50,1.5z M82.9,71.5h-8.4v-20
	l0,0v-0.7h-1h-12h-0.9v11.9l0,0c0,4.6-3.7,8.4-8.4,8.4l0,0H23.8c-3.7,0-6.8-3.7-6.8-8.4h6.8h28.4V50.8l0,0h-0.9H23.8
	c-3.6,0-6.6-3.6-6.8-8l0,0V29.1h8.4v13.4h25.8h0.9l0,0V29h8.4v13.5h0.9h12h1l0,0V29h8.4L82.9,71.5L82.9,71.5z"/>
</svg>
