<?xml version="1.0" encoding="utf-8"?>
<!-- Generator: Adobe Illustrator 20.0.0, SVG Export Plug-In . SVG Version: 6.00 Build 0)  -->
<svg version="1.1" id="Camada_1" xmlns="http://www.w3.org/2000/svg" xmlns:xlink="http://www.w3.org/1999/xlink" x="0px" y="0px"
	 viewBox="0 0 100 100" style="enable-background:new 0 0 100 100;" xml:space="preserve">
<style type="text/css">
	.st0{fill:#FFFFFF;}
</style>
<g>
	<path class="st0" d="M63.1,21.9c-1.7,0-3.1,0.6-4.3,1.9c-1.9,2-3.4,5.7-4.3,10.6c1.1-0.5,6.1-3.6,7.5-5.5c1.3-1.7,2.2-3.2,2.8-4.5
		C65.3,23.2,64.5,21.9,63.1,21.9z"/>
	<path class="st0" d="M38.1,71.1c-1.3,1.7-2.2,3.2-2.8,4.5c-0.6,1.2,0.3,2.5,1.7,2.5c1.7,0,3.1-0.6,4.3-1.9c1.9-2,3.4-5.7,4.3-10.6
		C44.4,66.1,39.5,69.2,38.1,71.1z"/>
	<path class="st0" d="M50,1.5C23.1,1.5,1.2,23.3,1.2,50.3S23.1,99,50,99s48.8-21.8,48.8-48.8S76.9,1.5,50,1.5z M82.3,64
		c-1.7,1.7-4.2,2.6-7.3,2.6c-1.4,0-2.7-0.2-3.8-0.6c-1.2-0.4-2.3-1.1-3.2-2c-1.3-1.4-2.1-3.2-2.4-5.6c-0.2-1.7-0.2-3.6-0.1-5.6
		c0-0.9,0.1-1.9,0.1-2.9c0-3.2-0.5-5.8-1.5-7.3c-0.6-1-1.7-2.1-4.4-2.1c-2.8,0-3.9,1.2-4.6,2.2c-1,1.6-1.3,13-1.9,18.9
		c-0.9,9-3.2,15.5-6.8,19.4c-1.2,1.3-2.6,2.3-4.2,3.1c-1.7,0.8-3.5,1.2-5.4,1.2c-2.2,0-3.9-0.3-5.4-1c-1.7-0.8-3-2-3.6-3.6
		c-0.9-2.1-0.7-4.6,0.5-7.5c0.8-1.8,2-3.9,3.6-6.1c0.6-0.8,1.1-1.5,1.7-2.2c-1.9-1.1-3.1-2.6-3.9-3.9c-0.9-1.5-1.6-3.3-2-5.3
		c-0.4-1.7-0.5-3.7-0.5-5.8c0-1.1,0-2.1,0.1-3.1c0-1.7,0.1-3.3-0.1-4.6c-0.1-1.1-0.4-1.4-0.4-1.5c-0.1-0.1-0.6-0.3-1.8-0.3
		c-0.6,0-1.7,0.1-2.2,0.5c-0.2,0.2-0.5,0.7-0.7,2.1c-0.2,1.5-0.2,3.4-0.2,5.4c0,0.5,0,1,0,1.5h-7.2c0-0.5,0-1,0-1.4
		c0-4.9-0.1-9.5,3-12.6c1.7-1.7,4.2-2.6,7.3-2.6c1.4,0,2.7,0.2,3.8,0.6c1.2,0.4,2.3,1.1,3.2,2c1.3,1.4,2.1,3.2,2.4,5.6
		c0.2,1.7,0.2,3.6,0.1,5.6c0,0.9-0.1,1.9-0.1,2.9c0,3.2,0.5,5.8,1.5,7.3c0.6,1,1.7,2.1,4.4,2.1c2.8,0,3.9-1.2,4.6-2.2
		c1-1.6,1.3-13,1.9-18.9c0.9-9,3.2-15.5,6.8-19.4c1.2-1.3,2.6-2.3,4.2-3.1c1.7-0.8,3.5-1.2,5.4-1.2c2.2,0,3.9,0.3,5.4,1
		c1.7,0.8,3,2,3.6,3.6c0.9,2.1,0.7,4.6-0.5,7.5c-0.8,1.8-2,3.9-3.6,6.1c-0.6,0.8-1.1,1.5-1.7,2.2c1.9,1.1,3.1,2.6,3.9,3.9
		c0.9,1.5,1.6,3.3,2,5.3c0.4,1.7,0.5,3.7,0.5,5.8c0,1.1,0,2.1-0.1,3.1c0,1.7-0.1,3.3,0.1,4.6c0.1,1.1,0.4,1.4,0.4,1.5
		c0.1,0.1,0.6,0.3,1.8,0.3c0.6,0,1.7-0.1,2.2-0.5c0.2-0.2,0.5-0.7,0.7-2.1c0.2-1.5,0.2-3.4,0.2-5.4c0-0.5,0-1,0-1.5h7.2
		c0,0.5,0,1,0,1.4C85.3,56.3,85.3,61,82.3,64z"/>
</g>
</svg>
