<?xml version="1.0" encoding="utf-8"?>
<!-- Generator: Adobe Illustrator 20.0.0, SVG Export Plug-In . SVG Version: 6.00 Build 0)  -->
<svg version="1.1" id="Camada_1" xmlns="http://www.w3.org/2000/svg" xmlns:xlink="http://www.w3.org/1999/xlink" x="0px" y="0px"
	 viewBox="0 0 100 100" style="enable-background:new 0 0 100 100;" xml:space="preserve">
<style type="text/css">
	.st0{fill:#FFFFFF;}
</style>
<path class="st0" d="M98.7,52c0-0.6,0-1.3,0-2h-9.9c0,0.7,0,1.4,0,2c0,2.8,0,5.4-0.3,7.4c-0.3,1.9-0.7,2.6-1,2.9
	c-0.6,0.6-2.1,0.7-3,0.7c-1.6,0-2.4-0.3-2.5-0.5c-0.1-0.1-0.4-0.5-0.6-2c-0.2-1.7-0.1-3.9-0.1-6.3c0-1.4,0.1-2.8,0.1-4.3
	c0-2.9-0.2-5.6-0.7-8c-0.6-2.8-1.5-5.3-2.8-7.3c-1.1-1.8-2.9-3.9-5.5-5.4c0.8-0.9,1.5-2,2.3-3c2.2-3.1,3.9-5.9,5-8.4
	c1.7-4,1.9-7.4,0.7-10.3c-0.9-2.2-2.7-3.9-5-5c-2-0.9-4.4-1.3-7.4-1.3c-2.7,0-5.2,0.5-7.5,1.6c-2.1,1-4.1,2.4-5.8,4.2
	c-5,5.4-8.2,14.4-9.4,26.8c-0.8,8.2-1.2,24-2.6,26.2c-0.9,1.4-2.5,3-6.3,3c-3.7,0-5.2-1.6-6-2.9c-1.3-2.2-2-5.7-2-10.1
	c0-1.3,0-2.7,0.1-4c0.1-2.7,0.1-5.3-0.1-7.7c-0.4-3.3-1.5-5.9-3.3-7.8c-1.2-1.2-2.7-2.1-4.4-2.7c-1.5-0.5-3.3-0.8-5.3-0.8
	c-4.3,0-7.6,1.2-10,3.6C1.3,34.9,1.3,41.3,1.3,48c0,0.6,0,1.3,0,2h9.9c0-0.7,0-1.4,0-2c0-2.8,0-5.4,0.3-7.4c0.3-1.9,0.7-2.6,1-2.9
	c0.6-0.6,2.1-0.7,3-0.7c1.6,0,2.4,0.3,2.5,0.5c0.1,0.1,0.4,0.5,0.6,2c0.2,1.7,0.1,3.9,0.1,6.3c0,1.4-0.1,2.8-0.1,4.3
	c0,2.9,0.2,5.6,0.7,8c0.6,2.8,1.5,5.3,2.8,7.3c1.1,1.8,2.9,3.9,5.5,5.4c-0.8,0.9-1.5,2-2.3,3c-2.2,3.1-3.9,5.9-5,8.4
	c-1.7,4-1.9,7.4-0.7,10.3c0.9,2.2,2.7,3.9,5,5c2,0.9,4.4,1.3,7.4,1.3c2.7,0,5.2-0.5,7.5-1.6c2.1-1,4.1-2.4,5.8-4.2
	c5-5.4,8.2-14.4,9.4-26.8c0.8-8.2,1.2-24,2.6-26.2c0.9-1.4,2.5-3,6.3-3c3.7,0,5.2,1.6,6,2.9c1.3,2.2,2,5.7,2,10.1c0,1.3,0,2.7-0.1,4
	c-0.1,2.7-0.1,5.3,0.1,7.7c0.4,3.3,1.5,5.9,3.3,7.8c1.2,1.2,2.7,2.1,4.4,2.7c1.5,0.5,3.3,0.8,5.3,0.8c4.3,0,7.6-1.2,10-3.6
	C98.7,65.1,98.7,58.7,98.7,52z M38,86.2c-1.7,1.8-3.6,2.7-6,2.7c-1.9,0-3.1-1.8-2.3-3.5c0.8-1.8,2.1-3.9,3.9-6.2
	c1.9-2.6,8.8-6.9,10.3-7.6C42.6,78.3,40.6,83.4,38,86.2z M56.2,28.4c1.2-6.7,3.3-11.8,5.9-14.6c1.7-1.8,3.6-2.7,6-2.7
	c1.9,0,3.1,1.8,2.3,3.5c-0.8,1.8-2.1,3.9-3.9,6.2C64.5,23.5,57.7,27.8,56.2,28.4z"/>
</svg>
